<svg data-v-fde0c5aa="" xmlns="http://www.w3.org/2000/svg" viewBox="0 0 300 300" class="font"><!----><defs data-v-fde0c5aa=""><!----></defs><rect data-v-fde0c5aa="" fill="#FFD650" x="0" y="0" width="300px" height="300px" class="logo-background-square"></rect><defs data-v-fde0c5aa=""><!----></defs><g data-v-fde0c5aa="" id="5e664d02-227e-4c86-95a1-c7f5f65af05d" fill="#99472D" transform="matrix(4.127579796418264,0,0,4.127579796418264,38.514071214243934,106.2889293261119)"><path d="M0.69 17.09L0.69 16.90L0.69 16.90Q2.25 15.37 2.67 12.80L2.67 12.80L2.67 12.80Q2.88 11.51 2.88 8.11L2.88 8.11L2.88 8.11Q2.35 8.11 1.83 8.65L1.83 8.65L1.83 8.65Q1.71 8.79 1.05 9.67L1.05 9.67L1.05 9.67Q0.64 10.22 0.36 10.22L0.36 10.22L0.36 10.22Q0.36 8.61 1.11 7.64L1.11 7.64L1.11 7.64Q1.48 7.15 3.42 6.05L3.42 6.05L3.42 6.05Q5.36 4.96 5.91 4.96L5.91 4.96L5.91 4.96Q5.91 5.14 5.76 5.46L5.76 5.46L5.76 5.46Q5.61 5.78 5.61 5.96L5.61 5.96L5.61 5.96Q5.91 5.96 6.48 5.82L6.48 5.82L6.48 5.82Q7.04 5.68 7.34 5.68L7.34 5.68L7.34 5.68Q8.22 5.68 8.80 6.23L8.80 6.23L8.80 6.23Q9.38 6.78 9.38 7.66L9.38 7.66L9.38 7.66Q9.38 8.61 8.79 9.30L8.79 9.30L8.79 9.30Q8.50 9.63 7.41 10.46L7.41 10.46L7.41 10.46Q7.29 10.54 7.27 10.60L7.27 10.60L7.69 11.44L10.91 15.78L10.91 16.23L10.91 16.23Q8.43 16.23 6.15 13.26L6.15 13.26L6.15 13.26Q6.03 13.09 5.73 12.65L5.73 12.65L5.73 12.65Q5.42 12.21 5.17 12.00L5.17 12.00L4.96 12.14L4.96 14.38L4.96 14.38Q4.96 14.78 2.97 15.96L2.97 15.96L2.97 15.96Q1.06 17.09 0.69 17.09L0.69 17.09ZM5.57 6.94L5.57 6.94L5.57 6.94Q5.17 6.94 5.17 7.66L5.17 7.66L5.17 10.77L5.17 10.77Q5.95 10.77 6.44 9.94L6.44 9.94L6.44 9.94Q6.86 9.24 6.86 8.40L6.86 8.40L6.86 8.40Q6.86 7.84 6.49 7.39L6.49 7.39L6.49 7.39Q6.12 6.94 5.57 6.94ZM12.45 14.32L12.45 10.99L12.45 10.99Q12.26 10.99 11.91 11.14L11.91 11.14L11.91 11.14Q11.55 11.28 11.37 11.28L11.37 11.28L11.37 11.28Q11.37 10.40 12.85 9.45L12.85 9.45L12.85 9.45Q14.22 8.57 15.13 8.57L15.13 8.57L15.13 8.57Q15.13 8.86 14.69 9.84L14.69 9.84L14.69 10.36L14.69 10.36Q14.69 10.37 14.67 10.72L14.67 10.72L14.67 10.72Q14.67 10.81 14.67 10.89L14.67 10.89L14.67 10.89Q14.67 11.76 14.69 11.94L14.69 11.94L14.69 11.94Q14.73 12.50 14.83 12.50L14.83 12.50L15.11 12.50L16.65 11.52L16.65 11.52Q16.67 11.51 16.72 11.51L16.72 11.51L16.72 11.51Q16.94 11.51 16.94 12.17L16.94 12.17L16.94 12.17Q16.94 12.98 15.62 14.22L15.62 14.22L15.62 14.22Q14.29 15.46 13.47 15.46L13.47 15.46L13.47 15.46Q12.45 15.46 12.45 14.32L12.45 14.32ZM13.44 6.48L13.44 6.48L13.44 6.20L13.44 6.20Q13.44 6.10 13.43 6.01L13.43 6.01L13.43 5.92L13.43 5.92Q13.40 5.88 13.16 5.74L13.16 5.74L13.16 5.74Q12.99 5.64 12.99 5.50L12.99 5.50L12.99 5.50Q12.99 5.53 13.01 5.36L13.01 5.36L14.10 4.59L14.10 4.59Q14.88 4.09 15.40 4.09L15.40 4.09L15.40 4.09Q15.67 4.09 15.67 4.45L15.67 4.45L15.67 4.45Q15.67 5.74 13.99 7.60L13.99 7.60L13.99 7.60Q13.23 8.44 13.15 8.44L13.15 8.44L12.82 8.44L12.82 8.44Q12.82 8.15 13.13 7.48L13.13 7.48L13.13 7.48Q13.44 6.82 13.44 6.48ZM17.14 12.45L17.14 12.45L17.14 12.45Q17.14 10.70 18.21 9.34L18.21 9.34L18.21 9.34Q19.36 7.87 21.07 7.87L21.07 7.87L21.07 7.87Q22.46 7.87 23.14 8.85L23.14 8.85L23.14 8.85Q23.74 9.70 23.74 11.13L23.74 11.13L23.74 11.13Q23.74 12.68 22.81 14L22.81 14L22.81 14Q21.77 15.46 20.23 15.46L20.23 15.46L20.23 15.46Q19.08 15.46 18.11 14.52L18.11 14.52L18.11 14.52Q17.14 13.58 17.14 12.45ZM19.08 11.28L19.08 11.28L19.08 11.28Q19.08 12.46 20.65 13.76L20.65 13.76L20.83 13.76L20.83 13.76Q20.97 13.78 21 13.78L21 13.78L21 13.78Q21.49 13.78 21.73 13.26L21.73 13.26L21.73 13.26Q21.91 12.87 21.91 12.31L21.91 12.31L21.91 12.31Q21.91 11.34 21.60 10.58L21.60 10.58L21.60 10.58Q21.17 9.53 20.36 9.53L20.36 9.53L20.36 9.53Q20.01 9.53 19.82 10.04L19.82 10.04L19.82 10.04Q19.77 10.30 19.63 10.84L19.63 10.84L19.63 10.84Q19.50 11.28 19.08 11.28ZM25.61 13.05L25.62 12.77L25.62 12.77Q25.62 12.74 25.61 12.49L25.61 12.49L25.61 12.49Q25.42 11.51 25.19 10.53L25.19 10.53L25.19 10.53Q25.16 10.44 24.88 10.35L24.88 10.35L24.88 10.35Q24.60 10.26 24.60 10.11L24.60 10.11L24.60 10.11Q24.60 9.83 25.87 9.20L25.87 9.20L25.87 9.20Q27.10 8.57 27.50 8.57L27.50 8.57L27.57 8.57L27.57 8.57Q27.76 8.64 27.85 8.71L27.85 8.71L27.85 9.97L27.99 9.97L27.99 9.97Q28.52 9.52 29.27 9.10L29.27 9.10L29.27 9.10Q30.23 8.57 30.72 8.57L30.72 8.57L30.79 8.57L30.79 8.57Q30.94 8.64 30.94 8.78L30.94 8.78L30.94 8.78Q30.94 9.04 30.65 9.63L30.65 9.63L30.65 9.63Q30.37 10.22 30.37 10.53L30.37 10.53L30.37 10.53Q30.37 11.37 30.39 11.55L30.39 11.55L30.39 11.55Q30.52 12.36 31.00 12.36L31.00 12.36L31.00 12.36Q31.40 12.36 31.46 11.84L31.46 11.84L31.46 11.84Q31.46 11.84 31.54 10.98L31.54 10.98L31.54 10.98Q31.67 10.37 31.98 10.37L31.98 10.37L32.02 10.37L32.02 10.37Q32.03 10.39 32.05 10.39L32.05 10.39L32.05 10.39Q32.20 10.96 32.20 11.87L32.20 11.87L32.20 11.87Q32.20 12.98 31.54 14.07L31.54 14.07L31.54 14.07Q30.79 15.32 29.78 15.32L29.78 15.32L29.78 15.32Q28.78 15.32 28.39 13.83L28.39 13.83L28.39 13.83Q28.25 13.30 28.13 11.65L28.13 11.65L28.13 11.65Q27.87 11.75 27.78 12.98L27.78 12.98L27.78 12.98Q27.76 13.19 27.71 14.45L27.71 14.45L27.71 14.45Q27.58 15.01 26.42 15.75L26.42 15.75L26.42 15.75Q25.31 16.46 24.70 16.46L24.70 16.46L24.70 16.46Q24.70 16.20 24.93 15.82L24.93 15.82L24.93 15.82Q25.16 15.44 25.19 15.29L25.19 15.29L25.47 13.47L25.61 13.05ZM32.90 12.82L32.90 12.82L32.90 12.82Q32.90 11.07 34.24 9.75L34.24 9.75L34.24 9.75Q35.57 8.43 37.32 8.43L37.32 8.43L37.32 8.43Q37.98 8.43 38.26 8.68L38.26 8.68L38.26 8.68Q38.53 8.93 38.53 9.58L38.53 9.58L38.53 9.58Q38.53 10.50 37.48 11.28L37.48 11.28L37.48 11.28Q36.60 11.82 35.71 12.36L35.71 12.36L35.57 12.50L35.57 12.50Q35.57 12.53 35.56 12.57L35.56 12.57L35.56 12.57Q35.56 12.80 35.88 13.05L35.88 13.05L35.88 13.05Q36.15 13.26 36.41 13.34L36.41 13.34L36.48 13.34L36.48 13.34Q36.90 13.34 37.77 12.69L37.77 12.69L37.77 12.69Q38.64 12.04 38.82 12.04L38.82 12.04L38.82 12.04Q38.82 13.23 37.59 14.34L37.59 14.34L37.59 14.34Q36.36 15.46 35.15 15.46L35.15 15.46L35.15 15.46Q34.10 15.46 33.47 14.64L33.47 14.64L33.47 14.64Q32.90 13.90 32.90 12.82ZM35.43 10.12L35.43 10.12L35.43 10.12Q34.93 10.81 34.93 11.56L34.93 11.56L34.93 11.56Q35.21 11.56 35.61 11.14L35.61 11.14L35.61 11.14Q36.01 10.71 36.01 10.42L36.01 10.42L36.01 10.42Q36.01 10.11 35.64 10.11L35.64 10.11L35.55 10.11L35.55 10.11Q35.45 10.12 35.43 10.12ZM39.55 10.74L39.55 10.74L39.55 10.74Q39.55 8.82 40.60 7.13L40.60 7.13L40.60 7.13Q41.62 5.47 43.33 4.52L43.33 4.52L43.33 4.52Q43.37 4.52 43.47 4.51L43.47 4.51L43.47 4.51Q43.57 4.49 43.61 4.49L43.61 4.49L43.61 4.49Q44.06 4.49 44.28 5.05L44.28 5.05L44.28 5.05Q44.45 5.46 44.45 5.99L44.45 5.99L44.45 5.99Q44.45 7.41 43.69 8.69L43.69 8.69L43.69 8.69Q43.23 9.48 41.93 10.96L41.93 10.96L41.93 11.17L41.93 11.17Q41.93 11.69 42.07 12.21L42.07 12.21L42.07 12.21Q42.27 12.94 42.63 12.94L42.63 12.94L42.63 12.94Q42.87 12.94 43.05 12.78L43.05 12.78L43.05 12.78Q43.68 12.24 44.17 11.66L44.17 11.66L44.44 11.66L44.44 11.66Q44.44 12.99 43.75 14.13L43.75 14.13L43.75 14.13Q42.95 15.46 41.65 15.46L41.65 15.46L41.65 15.46Q40.50 15.46 39.93 13.47L39.93 13.47L39.93 13.47Q39.55 12.15 39.55 10.74ZM42.28 6.73L42.28 6.73L42.28 6.73Q42.14 6.73 41.96 7.73L41.96 7.73L41.96 7.73Q41.75 8.88 41.75 9.98L41.75 9.98L41.93 9.98L41.93 9.98Q42.11 9.98 42.32 9.09L42.32 9.09L42.32 9.09Q42.50 8.30 42.50 7.99L42.50 7.99L42.50 7.99Q42.50 7.11 42.35 6.76L42.35 6.76L42.35 6.76Q42.32 6.73 42.28 6.73ZM47.92 6.27L47.92 6.27L47.92 6.27Q47.95 7.13 46.66 7.81L46.66 7.81L45.42 7.69L45.42 7.69Q45.96 7.28 45.99 6.89L45.99 6.89L45.99 6.89Q45.93 6.92 45.86 6.92L45.86 6.92L45.86 6.92Q45.50 6.92 45.30 6.61L45.30 6.61L45.30 6.61Q45.02 6.16 45.14 5.82L45.14 5.82L45.14 5.82Q45.28 5.42 45.92 5.35L45.92 5.35L45.92 5.35Q46.03 5.33 46.93 5.38L46.93 5.38L46.93 5.38Q47.29 5.39 47.58 5.65L47.58 5.65L47.58 5.65Q47.87 5.91 47.92 6.27ZM53.66 13.01L53.66 13.01L53.66 13.01Q53.66 12.14 52.67 11.52L52.67 11.52L52.67 11.52Q51.38 10.71 51.49 10.02L51.49 10.02L51.49 10.02Q51.55 9.70 51.95 9.35L51.95 9.35L51.95 9.35Q52.43 9.02 52.56 8.92L52.56 8.92L52.56 8.92Q52.85 8.67 52.89 8.44L52.89 8.44L52.89 8.44Q52.96 8.05 52.36 8.05L52.36 8.05L52.36 8.05Q51.37 8.05 50.22 8.82L50.22 8.82L50.22 8.82Q48.97 9.66 48.97 10.61L48.97 10.61L48.97 10.61Q48.97 11.28 49.78 11.83L49.78 11.83L49.78 11.83Q50.76 12.49 50.76 13.23L50.76 13.23L50.76 13.23Q50.76 14.08 49.73 14.66L49.73 14.66L49.73 14.66Q49.10 15.01 49.03 15.33L49.03 15.33L49.03 15.33Q48.94 15.75 49.84 15.75L49.84 15.75L49.84 15.75Q51.10 15.75 52.29 15.02L52.29 15.02L52.29 15.02Q53.66 14.20 53.66 13.01Z"></path></g><!----><!----></svg>